<svg xmlns="http://www.w3.org/2000/svg" viewBox="0 0 290 72" role="img" aria-label="Refogando">
<!-- Refogando · lockup horizontal: simbolo "frigideira-lateral" + wordmark serifado -->
  <title>Refogando</title>
  <!-- simbolo (coords 64u, centrado verticalmente) -->
  <g transform="translate(4 4)">
    <path d="M20 18 C17 14 23 12 20 7" fill="none" stroke="#3A2E25" stroke-width="2" stroke-linecap="round"/>
    <path d="M30 15 C33 11 27 9 30 4" fill="none" stroke="#3A2E25" stroke-width="2" stroke-linecap="round"/>
    <ellipse cx="15" cy="31" rx="4" ry="3" fill="#4E8A5F" transform="rotate(-18 15 31)"/>
    <circle cx="23" cy="25" r="3.6" fill="#C2553A"/>
    <circle cx="28" cy="20" r="2.4" fill="#3F7A50"/>
    <ellipse cx="33" cy="31" rx="3.8" ry="2.9" fill="#9E4430" transform="rotate(12 33 31)"/>
    <path d="M5 35 L43 35 C43 45 40 49 34 49 L14 49 C8 49 5 45 5 35 Z" fill="#3A2E25"/>
    <line x1="42" y1="35" x2="60" y2="30" stroke="#3A2E25" stroke-width="6" stroke-linecap="round"/>
  </g>
  <!-- wordmark serifado -->
  <text x="84" y="49" font-family="Georgia, 'Times New Roman', serif" font-size="40" letter-spacing="0.5" fill="#3A2E25">Refogando</text>
</svg>
